# xmcd
#
# Track frame offsets: 
#        150
#        13295
#        29616
#        42814
#        54136
#        68613
#        81988
#        97548
#        110727
#        126306
#
# Disc length: 1833 seconds
#
# Revision: 0
# Processed by: cddbd v1.5.2PL0 Copyright (c) Steve Scherf et al.
# Submitted via: ExactAudioCopy v0.99pb4
#
DISCID=7b07270a
DTITLE=Oak Ridge Boys - Oak Ridge Boys Greatest Hits
DYEAR=1980
DGENRE=Country
TTITLE0=You're the One
TTITLE1=I'll Be True to You
TTITLE2=Y'All Come Back Saloon
TTITLE3=Cryin' Again
TTITLE4=Dream On
TTITLE5=Leaving Louisiana In the Broad Daylight
TTITLE6=Heart of Mine
TTITLE7=Come On In
TTITLE8=Sail Away
TTITLE9=Trying to Love Two Women
EXTD=
EXTT0=
EXTT1=
EXTT2=
EXTT3=
EXTT4=
EXTT5=
EXTT6=
EXTT7=
EXTT8=
EXTT9=
PLAYORDER=
